<svg width="25" height="25" viewBox="0 0 25 25" fill="none" xmlns="http://www.w3.org/2000/svg">
<path d="M8.53746 19.6875C8.78746 19.4 9.19996 19.3 9.56246 19.4375C10.575 19.8125 11.6875 20 12.8125 20C17.525 20 21.25 16.625 21.25 12.5C21.25 8.375 17.525 5 12.8125 5C8.09996 5 4.37496 8.375 4.37496 12.5C4.37496 14.0125 4.87496 15.4625 5.79996 16.6875C5.92496 16.8625 5.99996 17.075 5.98746 17.3C5.93746 18.25 5.48746 19.525 4.63746 21.2125C6.48746 21.075 7.76246 20.55 8.53746 19.6875V19.6875ZM4.04996 23.125C3.78567 23.1348 3.52348 23.0745 3.28998 22.9503C3.05648 22.8261 2.85997 22.6424 2.72037 22.4178C2.58077 22.1932 2.50304 21.9356 2.49507 21.6713C2.48709 21.4069 2.54916 21.1451 2.67496 20.9125C3.29599 19.8446 3.76707 18.6963 4.07496 17.5C3.05131 16.0335 2.50164 14.2885 2.49996 12.5C2.49996 7.2875 7.09996 3.125 12.8125 3.125C18.525 3.125 23.125 7.2875 23.125 12.5C23.125 17.7125 18.525 21.875 12.8125 21.875C11.6625 21.875 10.55 21.7125 9.48746 21.375C8.23746 22.4875 6.41246 23.05 4.04996 23.125Z" fill="#06B0CA"/>
</svg>
