<svg width="25" height="25" viewBox="0 0 25 25" fill="none" xmlns="http://www.w3.org/2000/svg">
<path fill-rule="evenodd" clip-rule="evenodd" d="M14.8 2.5H10.2C9.0375 2.5 8.1125 2.5 7.375 2.5625C6.6 2.625 5.9375 2.75 5.3375 3.0625C4.35723 3.56056 3.56056 4.35723 3.0625 5.3375C2.76237 5.97679 2.5924 6.6694 2.5625 7.375C2.5 8.125 2.5 9.0375 2.5 10.2V14.8C2.5 15.9625 2.5 16.8875 2.5625 17.625C2.625 18.4 2.75 19.0625 3.0625 19.6625C3.5625 20.6375 4.3625 21.4375 5.3375 21.9375C5.9375 22.25 6.6 22.375 7.375 22.4375C8.125 22.5 9.0375 22.5 10.2 22.5H14.8C15.9625 22.5 16.8875 22.5 17.625 22.4375C18.3306 22.4076 19.0232 22.2376 19.6625 21.9375C20.6428 21.4394 21.4394 20.6428 21.9375 19.6625C22.25 19.0625 22.375 18.4 22.4375 17.625C22.5 16.875 22.5 15.9625 22.5 14.8V10.2C22.5 9.0375 22.5 8.1125 22.4375 7.375C22.4076 6.6694 22.2376 5.97679 21.9375 5.3375C21.4394 4.35723 20.6428 3.56056 19.6625 3.0625C19.0232 2.76237 18.3306 2.5924 17.625 2.5625C16.875 2.5 15.9625 2.5 14.8 2.5ZM6.175 4.7375C6.4875 4.5875 6.875 4.4875 7.525 4.425C8.1875 4.375 9.025 4.375 10.2375 4.375H14.7625C15.9625 4.375 16.8125 4.375 17.475 4.425C18.125 4.4875 18.5125 4.5875 18.8125 4.7375C19.4375 5.05 19.9375 5.5625 20.2625 6.1875C20.4125 6.4875 20.5125 6.875 20.575 7.525L20.6 8.125H4.4L4.425 7.525C4.4875 6.875 4.5875 6.4875 4.7375 6.1875C5.05 5.5625 5.5625 5.0625 6.1875 4.7375H6.175ZM4.375 10V14.7625C4.375 15.9625 4.375 16.8125 4.425 17.475C4.4875 18.125 4.5875 18.5125 4.7375 18.8125C5.05 19.4375 5.5625 19.9375 6.1875 20.2625C6.4875 20.4125 6.875 20.5125 7.525 20.575C8.1875 20.625 9.025 20.625 10.2375 20.625H14.7625C15.9625 20.625 16.8125 20.625 17.475 20.575C17.9371 20.5602 18.3917 20.454 18.8125 20.2625C19.4375 19.95 19.9375 19.4375 20.2625 18.8125C20.4125 18.5125 20.5125 18.125 20.575 17.475C20.625 16.8125 20.625 15.975 20.625 14.7625V10.2375V10H4.375Z" fill="#06B0CA"/>
</svg>
