<svg width="25" height="25" viewBox="0 0 25 25" fill="none" xmlns="http://www.w3.org/2000/svg">
<path fill-rule="evenodd" clip-rule="evenodd" d="M7.3 19.5375C8.80312 20.6556 10.6266 21.2595 12.5 21.2595C14.3734 21.2595 16.1969 20.6556 17.7 19.5375C16.1241 18.6098 14.3287 18.1205 12.5 18.1205C10.6713 18.1205 8.8759 18.6098 7.3 19.5375V19.5375ZM5.875 18.2125C4.78027 16.9437 4.07293 15.3871 3.83708 13.728C3.60124 12.0688 3.84681 10.3769 4.5446 8.85321C5.24238 7.32957 6.36303 6.03835 7.77331 5.13308C9.18359 4.22781 10.8242 3.74657 12.5 3.74657C14.1758 3.74657 15.8164 4.22781 17.2267 5.13308C18.637 6.03835 19.7576 7.32957 20.4554 8.85321C21.1532 10.3769 21.3988 12.0688 21.1629 13.728C20.9271 15.3871 20.2197 16.9437 19.125 18.2125C17.1546 16.927 14.8527 16.2425 12.5 16.2425C10.1473 16.2425 7.84544 16.927 5.875 18.2125V18.2125ZM12.5 1.875C11.1047 1.875 9.72307 2.14982 8.43399 2.68378C7.1449 3.21774 5.97361 4.00037 4.98699 4.98699C4.00037 5.97361 3.21774 7.1449 2.68378 8.43399C2.14982 9.72307 1.875 11.1047 1.875 12.5C1.875 13.8953 2.14982 15.2769 2.68378 16.566C3.21774 17.8551 4.00037 19.0264 4.98699 20.013C5.97361 20.9996 7.1449 21.7823 8.43399 22.3162C9.72307 22.8502 11.1047 23.125 12.5 23.125C15.3179 23.125 18.0204 22.0056 20.013 20.013C22.0056 18.0204 23.125 15.3179 23.125 12.5C23.125 9.68207 22.0056 6.97956 20.013 4.98699C18.0204 2.99442 15.3179 1.875 12.5 1.875V1.875ZM10.625 10.625C10.625 11.1223 10.8225 11.5992 11.1742 11.9508C11.5258 12.3025 12.0027 12.5 12.5 12.5C12.9973 12.5 13.4742 12.3025 13.8258 11.9508C14.1775 11.5992 14.375 11.1223 14.375 10.625C14.375 10.1277 14.1775 9.65081 13.8258 9.29917C13.4742 8.94754 12.9973 8.75 12.5 8.75C12.0027 8.75 11.5258 8.94754 11.1742 9.29917C10.8225 9.65081 10.625 10.1277 10.625 10.625V10.625ZM12.5 6.875C12.0075 6.875 11.5199 6.972 11.0649 7.16045C10.61 7.34891 10.1966 7.62513 9.84835 7.97335C9.50013 8.32157 9.22391 8.73497 9.03545 9.18994C8.847 9.64491 8.75 10.1325 8.75 10.625C8.75 11.1175 8.847 11.6051 9.03545 12.0601C9.22391 12.515 9.50013 12.9284 9.84835 13.2767C10.1966 13.6249 10.61 13.9011 11.0649 14.0895C11.5199 14.278 12.0075 14.375 12.5 14.375C13.4946 14.375 14.4484 13.9799 15.1517 13.2767C15.8549 12.5734 16.25 11.6196 16.25 10.625C16.25 9.63044 15.8549 8.67661 15.1517 7.97335C14.4484 7.27009 13.4946 6.875 12.5 6.875Z" fill="#06B0CA"/>
</svg>
