<svg width="25" height="25" viewBox="0 0 25 25" fill="none" xmlns="http://www.w3.org/2000/svg">
<path fill-rule="evenodd" clip-rule="evenodd" d="M7.8125 4.375C6.81794 4.375 5.86411 4.77009 5.16085 5.47335C4.45759 6.17661 4.0625 7.13044 4.0625 8.125C4.0625 9.11956 4.45759 10.0734 5.16085 10.7767C5.86411 11.4799 6.81794 11.875 7.8125 11.875C8.80706 11.875 9.76089 11.4799 10.4642 10.7767C11.1674 10.0734 11.5625 9.11956 11.5625 8.125C11.5625 7.13044 11.1674 6.17661 10.4642 5.47335C9.76089 4.77009 8.80706 4.375 7.8125 4.375ZM5.9375 8.125C5.9375 8.37123 5.986 8.61505 6.08023 8.84253C6.17445 9.07002 6.31256 9.27672 6.48667 9.45083C6.66078 9.62494 6.86748 9.76305 7.09497 9.85727C7.32245 9.9515 7.56627 10 7.8125 10C8.05873 10 8.30255 9.9515 8.53003 9.85727C8.75752 9.76305 8.96422 9.62494 9.13833 9.45083C9.31244 9.27672 9.45055 9.07002 9.54477 8.84253C9.639 8.61505 9.6875 8.37123 9.6875 8.125C9.6875 7.62772 9.48996 7.15081 9.13833 6.79917C8.78669 6.44754 8.30978 6.25 7.8125 6.25C7.31522 6.25 6.83831 6.44754 6.48667 6.79917C6.13504 7.15081 5.9375 7.62772 5.9375 8.125V8.125ZM3.3625 14.4625C4.5625 13.775 6.1375 13.4375 7.8125 13.4375C9.4875 13.4375 11.0625 13.775 12.2625 14.4625C13.4875 15.1625 14.375 16.3 14.375 17.8125C14.375 18.6875 14.025 19.4375 13.4 19.95C12.8 20.4375 12.025 20.625 11.25 20.625H4.375C3.6125 20.625 2.825 20.4375 2.225 19.95C1.6 19.45 1.25 18.7 1.25 17.8125C1.25 16.3 2.1375 15.1625 3.3625 14.4625ZM4.3 16.0875C3.4875 16.55 3.125 17.1375 3.125 17.8125C3.125 18.1875 3.25 18.3625 3.4 18.4875C3.575 18.625 3.9 18.75 4.375 18.75H11.25C11.7375 18.75 12.05 18.625 12.225 18.4875C12.375 18.3625 12.5 18.175 12.5 17.8125C12.5 17.1375 12.1375 16.5625 11.325 16.0875C10.5 15.6 9.2625 15.3125 7.8125 15.3125C6.3625 15.3125 5.125 15.6 4.3 16.0875ZM17.1875 4.375C16.1929 4.375 15.2391 4.77009 14.5358 5.47335C13.8326 6.17661 13.4375 7.13044 13.4375 8.125C13.4375 9.11956 13.8326 10.0734 14.5358 10.7767C15.2391 11.4799 16.1929 11.875 17.1875 11.875C18.1821 11.875 19.1359 11.4799 19.8392 10.7767C20.5424 10.0734 20.9375 9.11956 20.9375 8.125C20.9375 7.13044 20.5424 6.17661 19.8392 5.47335C19.1359 4.77009 18.1821 4.375 17.1875 4.375ZM15.3125 8.125C15.3125 8.62228 15.51 9.09919 15.8617 9.45083C16.2133 9.80246 16.6902 10 17.1875 10C17.6848 10 18.1617 9.80246 18.5133 9.45083C18.865 9.09919 19.0625 8.62228 19.0625 8.125C19.0625 7.62772 18.865 7.15081 18.5133 6.79917C18.1617 6.44754 17.6848 6.25 17.1875 6.25C16.6902 6.25 16.2133 6.44754 15.8617 6.79917C15.51 7.15081 15.3125 7.62772 15.3125 8.125V8.125Z" fill="#06B0CA"/>
<path d="M17.1875 15.3125C16.9 15.3125 16.625 15.325 16.3375 15.35C16.2108 15.3706 16.0811 15.365 15.9566 15.3334C15.832 15.3019 15.7153 15.2451 15.6137 15.1665C15.512 15.088 15.4276 14.9894 15.3656 14.8769C15.3037 14.7643 15.2655 14.6403 15.2535 14.5124C15.2415 14.3845 15.2559 14.2555 15.2958 14.1334C15.3357 14.0113 15.4003 13.8987 15.4855 13.8026C15.5708 13.7065 15.6748 13.6289 15.7913 13.5747C15.9078 13.5205 16.0341 13.4908 16.1625 13.4875C16.5 13.45 16.8375 13.4375 17.1875 13.4375C18.8625 13.4375 20.4375 13.775 21.6375 14.4625C22.8625 15.1625 23.75 16.3 23.75 17.8125C23.75 18.6875 23.4 19.4375 22.775 19.95C22.175 20.4375 21.4 20.625 20.625 20.625H16.875C16.6264 20.625 16.3879 20.5262 16.2121 20.3504C16.0363 20.1746 15.9375 19.9361 15.9375 19.6875C15.9375 19.4389 16.0363 19.2004 16.2121 19.0246C16.3879 18.8488 16.6264 18.75 16.875 18.75H20.625C21.1125 18.75 21.425 18.625 21.6 18.4875C21.75 18.3625 21.875 18.175 21.875 17.8125C21.875 17.1375 21.5125 16.5625 20.7 16.0875C19.6134 15.5367 18.405 15.27 17.1875 15.3125V15.3125Z" fill="#06B0CA"/>
</svg>
