<svg width="25" height="25" viewBox="0 0 25 25" fill="none" xmlns="http://www.w3.org/2000/svg">
<path d="M6.875 13.7502C7.12364 13.7502 7.3621 13.849 7.53791 14.0248C7.71373 14.2006 7.8125 14.4391 7.8125 14.6877V15.9377C7.8125 16.1863 7.71373 16.4248 7.53791 16.6006C7.3621 16.7764 7.12364 16.8752 6.875 16.8752C6.62636 16.8752 6.3879 16.7764 6.21209 16.6006C6.03627 16.4248 5.9375 16.1863 5.9375 15.9377V14.6877C5.9375 14.4391 6.03627 14.2006 6.21209 14.0248C6.3879 13.849 6.62636 13.7502 6.875 13.7502ZM11.5625 13.4377C11.5625 13.1891 11.4637 12.9506 11.2879 12.7748C11.1121 12.599 10.8736 12.5002 10.625 12.5002C10.3764 12.5002 10.1379 12.599 9.96209 12.7748C9.78627 12.9506 9.6875 13.1891 9.6875 13.4377V16.8752C9.6875 17.1238 9.78627 17.3623 9.96209 17.5381C10.1379 17.7139 10.3764 17.8127 10.625 17.8127C10.8736 17.8127 11.1121 17.7139 11.2879 17.5381C11.4637 17.3623 11.5625 17.1238 11.5625 16.8752V13.4377ZM18.125 12.5002C18.2492 12.5002 18.3721 12.5248 18.4867 12.5727C18.6012 12.6206 18.7052 12.6908 18.7924 12.7792C18.8796 12.8676 18.9484 12.9724 18.9948 13.0876C19.0411 13.2028 19.0642 13.326 19.0625 13.4502V16.9502C19.0608 17.1988 18.9605 17.4366 18.7835 17.6113C18.6065 17.7859 18.3674 17.8831 18.1187 17.8814C17.8701 17.8798 17.6323 17.7794 17.4577 17.6024C17.283 17.4255 17.1858 17.1863 17.1875 16.9377V13.4377C17.1875 13.1891 17.2863 12.9506 17.4621 12.7748C17.6379 12.599 17.8764 12.5002 18.125 12.5002ZM15.3125 11.5752C15.3125 11.3266 15.2137 11.0881 15.0379 10.9123C14.8621 10.7365 14.6236 10.6377 14.375 10.6377C14.1264 10.6377 13.8879 10.7365 13.7121 10.9123C13.5363 11.0881 13.4375 11.3266 13.4375 11.5752V17.2002C13.4375 17.4488 13.5363 17.6873 13.7121 17.8631C13.8879 18.0389 14.1264 18.1377 14.375 18.1377C14.6236 18.1377 14.8621 18.0389 15.0379 17.8631C15.2137 17.6873 15.3125 17.4488 15.3125 17.2002V11.5752Z" fill="#06B0CA"/>
<path fill-rule="evenodd" clip-rule="evenodd" d="M9.9 2.5C8.8 2.5 7.9 2.5 7.1875 2.5625C6.50745 2.59305 5.8403 2.75878 5.225 3.05C4.28947 3.52845 3.52845 4.28947 3.05 5.225C2.75446 5.8394 2.58447 6.50659 2.55 7.1875C2.5 7.9125 2.5 8.8 2.5 9.9V15.1C2.5 16.2 2.5 17.1 2.5625 17.8125C2.6125 18.5375 2.75 19.1875 3.05 19.775C3.52845 20.7105 4.28947 21.4716 5.225 21.95C5.825 22.25 6.4625 22.3875 7.1875 22.45C7.9125 22.5 8.8 22.5 9.9 22.5H15.1C16.2 22.5 17.1 22.5 17.8125 22.4375C18.4926 22.4069 19.1597 22.2412 19.775 21.95C20.7105 21.4716 21.4716 20.7105 21.95 19.775C22.25 19.1875 22.3875 18.5375 22.45 17.8125C22.5 17.0875 22.5 16.2 22.5 15.1V9.9C22.5 8.8 22.5 7.9 22.4375 7.1875C22.4069 6.50745 22.2412 5.8403 21.95 5.225C21.4716 4.28947 20.7105 3.52845 19.775 3.05C19.1606 2.75446 18.4934 2.58447 17.8125 2.55C17.0875 2.5 16.2 2.5 15.1 2.5H9.9ZM6.0875 4.7125C6.3625 4.575 6.725 4.475 7.3375 4.425C7.975 4.375 8.7875 4.375 9.9375 4.375H15.0625C16.2125 4.375 17.025 4.375 17.65 4.425C18.275 4.475 18.65 4.575 18.925 4.7125C19.5133 5.01507 19.9903 5.49651 20.2875 6.0875C20.425 6.3625 20.525 6.725 20.575 7.3375C20.6125 7.8625 20.625 8.5 20.625 9.3375C20.15 8.9875 19.5625 8.5875 18.9375 8.2125C17.6375 7.4 15.9375 6.5625 14.375 6.5625C12.5875 6.5625 11.2125 7.3625 9.95 8.1L9.425 8.4125C7.90137 9.35485 6.1642 9.89664 4.375 9.9875V9.9375C4.375 8.7875 4.375 7.975 4.425 7.35C4.475 6.725 4.575 6.35 4.7125 6.0875C5.01294 5.4946 5.4946 5.01294 6.0875 4.7125V4.7125ZM4.375 11.875V15.0625C4.375 16.2125 4.375 17.025 4.425 17.65C4.475 18.275 4.575 18.65 4.7125 18.925C5.01507 19.5133 5.49651 19.9903 6.0875 20.2875C6.3625 20.425 6.725 20.525 7.3375 20.575C7.975 20.625 8.7875 20.625 9.9375 20.625H15.0625C16.2125 20.625 17.025 20.625 17.65 20.575C18.275 20.525 18.65 20.425 18.925 20.2875C19.5133 19.9849 19.9903 19.5035 20.2875 18.9125C20.425 18.6375 20.525 18.275 20.575 17.6625C20.625 17.025 20.625 16.2125 20.625 15.0625V11.7C20.554 11.6461 20.4831 11.5919 20.4125 11.5375C19.875 11.125 18.9875 10.4375 17.9625 9.8C16.9001 9.05179 15.6663 8.58321 14.375 8.4375C13.125 8.4375 12.2125 8.9625 10.9125 9.7125C10.7254 9.82152 10.5379 9.92985 10.35 10.0375C8.54679 11.1477 6.49043 11.7801 4.375 11.875V11.875Z" fill="#06B0CA"/>
</svg>
