<svg width="25" height="25" viewBox="0 0 25 25" fill="none" xmlns="http://www.w3.org/2000/svg">
<path d="M21.0937 13.0935V11.8982L22.5937 10.5857C22.8702 10.342 23.0517 10.0084 23.106 9.64386C23.1603 9.27931 23.084 8.90729 22.8906 8.59355L21.0469 5.46855C20.9099 5.23125 20.7129 5.03416 20.4756 4.89703C20.2384 4.75991 19.9693 4.68758 19.6953 4.6873C19.5255 4.686 19.3566 4.71239 19.1953 4.76542L17.2969 5.40605C16.9691 5.18824 16.6272 4.9925 16.2734 4.82011L15.875 2.85136C15.8035 2.49168 15.6079 2.16858 15.3222 1.93863C15.0366 1.70868 14.6791 1.58652 14.3125 1.59355H10.6562C10.2896 1.58652 9.93216 1.70868 9.6465 1.93863C9.36085 2.16858 9.16517 2.49168 9.09373 2.85136L8.6953 4.82011C8.33899 4.99246 7.99449 5.1882 7.66405 5.40605L5.80467 4.73417C5.64162 4.69169 5.47277 4.67586 5.30467 4.6873C5.03067 4.68758 4.76155 4.75991 4.52433 4.89703C4.28711 5.03416 4.09011 5.23125 3.95311 5.46855L2.10936 8.59355C1.927 8.90682 1.85924 9.27375 1.91768 9.63149C1.97611 9.98923 2.15711 10.3155 2.42967 10.5545L3.90623 11.906V13.1014L2.42967 14.4139C2.14941 14.6545 1.96346 14.9866 1.90483 15.3513C1.84619 15.716 1.91865 16.0897 2.10936 16.406L3.95311 19.531C4.09011 19.7683 4.28711 19.9654 4.52433 20.1026C4.76155 20.2397 5.03067 20.312 5.30467 20.3123C5.47448 20.3136 5.64336 20.2872 5.80467 20.2342L7.70311 19.5935C8.03087 19.8114 8.37278 20.0071 8.72655 20.1795L9.12498 22.1482C9.19642 22.5079 9.3921 22.831 9.67775 23.061C9.96341 23.2909 10.3208 23.4131 10.6875 23.406H14.375C14.7416 23.4131 15.0991 23.2909 15.3847 23.061C15.6704 22.831 15.866 22.5079 15.9375 22.1482L16.3359 20.1795C16.6922 20.0071 17.0367 19.8114 17.3672 19.5935L19.2578 20.2342C19.4191 20.2872 19.588 20.3136 19.7578 20.3123C20.0318 20.312 20.3009 20.2397 20.5381 20.1026C20.7754 19.9654 20.9724 19.7683 21.1094 19.531L22.8906 16.406C23.073 16.0928 23.1407 15.7258 23.0823 15.3681C23.0239 15.0104 22.8429 14.6841 22.5703 14.4451L21.0937 13.0935ZM19.6953 18.7498L17.0156 17.8435C16.3883 18.3749 15.6714 18.7902 14.8984 19.0701L14.3437 21.8748H10.6562L10.1015 19.1014C9.33469 18.8135 8.62164 18.3989 7.99217 17.8748L5.30467 18.7498L3.46092 15.6248L5.58592 13.7498C5.44147 12.9411 5.44147 12.1132 5.58592 11.3045L3.46092 9.3748L5.30467 6.2498L7.98436 7.15605C8.61165 6.62471 9.32858 6.20937 10.1015 5.92949L10.6562 3.1248H14.3437L14.8984 5.89824C15.6653 6.18607 16.3783 6.60069 17.0078 7.1248L19.6953 6.2498L21.539 9.3748L19.414 11.2498C19.5585 12.0585 19.5585 12.8864 19.414 13.6951L21.539 15.6248L19.6953 18.7498Z" fill="#06B0CA"/>
<path d="M12.5 17.1875C11.5729 17.1875 10.6666 16.9126 9.89577 16.3975C9.12491 15.8824 8.5241 15.1504 8.16932 14.2938C7.81453 13.4373 7.7217 12.4948 7.90257 11.5855C8.08344 10.6762 8.52988 9.841 9.18544 9.18544C9.841 8.52988 10.6762 8.08344 11.5855 7.90257C12.4948 7.7217 13.4373 7.81453 14.2938 8.16932C15.1504 8.5241 15.8824 9.12491 16.3975 9.89577C16.9126 10.6666 17.1875 11.5729 17.1875 12.5C17.1938 13.1173 17.0768 13.7297 16.8435 14.3012C16.6101 14.8728 16.2651 15.392 15.8285 15.8285C15.392 16.2651 14.8728 16.6101 14.3012 16.8435C13.7297 17.0768 13.1173 17.1938 12.5 17.1875V17.1875ZM12.5 9.375C12.087 9.36538 11.6763 9.43964 11.2928 9.59328C10.9093 9.74692 10.561 9.97675 10.2689 10.2689C9.97675 10.561 9.74692 10.9093 9.59328 11.2928C9.43964 11.6763 9.36538 12.087 9.375 12.5C9.36538 12.913 9.43964 13.3237 9.59328 13.7072C9.74692 14.0907 9.97675 14.439 10.2689 14.7311C10.561 15.0233 10.9093 15.2531 11.2928 15.4067C11.6763 15.5604 12.087 15.6346 12.5 15.625C12.913 15.6346 13.3237 15.5604 13.7072 15.4067C14.0907 15.2531 14.439 15.0233 14.7311 14.7311C15.0233 14.439 15.2531 14.0907 15.4067 13.7072C15.5604 13.3237 15.6346 12.913 15.625 12.5C15.6346 12.087 15.5604 11.6763 15.4067 11.2928C15.2531 10.9093 15.0233 10.561 14.7311 10.2689C14.439 9.97675 14.0907 9.74692 13.7072 9.59328C13.3237 9.43964 12.913 9.36538 12.5 9.375Z" fill="#06B0CA"/>
</svg>
